<svg width="24" height="24" viewBox="0 0 24 24" fill="none" xmlns="http://www.w3.org/2000/svg">
<g clip-path="url(#clip0_39_3055)">
<path d="M19.7182 7.25845C20.3401 6.86703 21.2667 6.52799 22.0247 6.58945C23.722 6.72667 23.92 9.33807 23.9856 10.6764C24.0466 11.9167 23.9493 13.2725 22.989 14.1328C22.3088 14.7421 21.0654 14.9631 20.1852 14.9945C18.6256 15.0501 17.0856 14.8811 15.5408 14.7121C15.4687 14.7026 15.3256 14.9352 15.3253 14.982C15.3253 15.0343 15.3664 15.0818 15.4061 15.1101C16.6014 15.9656 17.9654 16.82 19.062 17.8109C20.3425 18.9677 21.757 20.6782 20.0489 22.209C19.1287 23.0337 17.0984 23.8399 15.899 23.9782C14.2391 24.1699 13.2606 23.0735 12.6088 21.6437C11.8694 20.0215 11.6518 18.2781 11.1566 16.5864C11.1215 16.467 11.1592 16.3901 11.0407 16.3109C10.9404 16.2438 10.8219 16.2107 10.7545 16.335C10.7337 16.3737 10.6704 16.5511 10.6542 16.6035C10.0414 18.5759 9.63432 20.9649 8.32892 22.5938C6.7619 24.5494 4.98613 22.9454 3.78645 21.534C2.81271 20.3884 1.81169 18.8853 2.56826 17.3144C3.41608 15.5546 6.1528 14.0595 7.7205 13.0472C7.82487 12.9799 8.18481 12.755 8.22185 12.6597C8.27303 12.5287 8.24811 12.3367 8.09424 12.3154C7.78043 12.2721 7.42083 12.3336 7.10702 12.3409C5.41812 12.381 3.7181 12.5211 2.0659 12.123C0.803263 11.8189 -0.20348 11.1691 0.0352425 9.63486C0.235581 8.34854 1.50024 6.19559 2.47264 5.34363C3.5016 4.44243 4.72956 4.56778 5.88849 5.12959C7.4949 5.90857 8.90098 7.27171 10.2579 8.44002C10.3508 8.51998 10.5 8.72319 10.6296 8.73122C10.6404 8.73192 10.8286 8.67885 10.8404 8.67256C10.9592 8.61041 10.8401 8.50636 10.8236 8.45817C10.6505 7.95084 10.503 7.43617 10.3316 6.92045C9.82085 5.38448 8.98347 3.12678 9.44778 1.50107C10.0155 -0.483584 12.2683 -0.0617926 13.7714 0.32578C15.5334 0.780043 17.1627 1.53843 17.0563 3.76261C16.9593 5.79091 15.9367 7.90545 15.1913 9.7417C15.1707 9.79233 15.1219 9.82725 15.1091 9.86601C15.102 9.88766 15.0566 10.1027 15.0583 10.1153C15.0664 10.1747 15.2182 10.3108 15.2771 10.3342C15.3478 10.3458 15.5586 10.1366 15.6313 10.0821C16.8182 9.19002 18.029 8.22633 19.2964 7.48401C19.4263 7.40789 19.6115 7.32548 19.7182 7.25845Z" fill="#FF9F40"/>
</g>
<defs>
<clipPath id="clip0_39_3055">
<rect width="24" height="24" fill="white"/>
</clipPath>
</defs>
</svg>
